Coordinates
version=1
nRows=29
nColumns=24
inDegrees=yes

Units are S.I. units (second, meters, Newtons, ...)
Angles are in degrees.

endheader
time	pelvis_tilt	pelvis_list	pelvis_rotation	pelvis_tx	pelvis_ty	pelvis_tz	hip_flexion_r	hip_adduction_r	hip_rotation_r	knee_angle_r	ankle_angle_r	subtalar_angle_r	mtp_angle_r	hip_flexion_l	hip_adduction_l	hip_rotation_l	knee_angle_l	ankle_angle_l	subtalar_angle_l	mtp_angle_l	lumbar_extension	lumbar_bending	lumbar_rotation
      2.99000000	    -13.69549245	      0.10572420	     -6.80461113	      0.08925151	      0.94492747	      0.02468823	      4.76824500	      4.63307889	      8.38010385	    -14.31738345	     13.74395319	      0.00000000	      0.00000000	     36.21447517	     -3.37767238	     -3.86048620	     -3.61708117	     -3.35848521	      0.00000000	      0.00000000	      9.82719867	      1.39785240	      3.77994167
      3.00000000	    -13.71121451	      0.20252994	     -6.91201066	      0.09073828	      0.94371739	      0.02362204	      4.33600520	      4.40570139	      8.50794391	    -14.54384321	     13.76619831	      0.00000000	      0.00000000	     36.33368437	     -3.18399026	     -3.78723272	     -4.51229004	     -3.49851953	      0.00000000	      0.00000000	      9.89192318	      1.37684570	      3.68254729
      3.01000000	    -13.73701285	      0.28852774	     -6.95913597	      0.09243438	      0.94253263	      0.02241750	      3.91180316	      4.17680549	      8.61527821	    -14.78945462	     13.73413653	      0.00000000	      0.00000000	     36.44715813	     -2.94380972	     -3.64541437	     -5.44130013	     -3.73144468	      0.00000000	      0.00000000	      9.99485741	      1.36262320	      3.56351156
      3.02000000	    -13.77557310	      0.37198858	     -6.95594394	      0.09430147	      0.94141260	      0.02112173	      3.50680983	      3.94159820	      8.66274731	    -15.05457297	     13.63633662	      0.00000000	      0.00000000	     36.57856111	     -2.66574134	     -3.40156876	     -6.42851038	     -4.04393801	      0.00000000	      0.00000000	     10.13751822	      1.34066632	      3.40127006
      3.03000000	    -13.85467136	      0.43523775	     -6.86405650	      0.09634268	      0.94034171	      0.01960986	      3.15215622	      3.71279506	      8.58722965	    -15.34589702	     13.43909588	      0.00000000	      0.00000000	     36.74265077	     -2.33618522	     -3.01611176	     -7.43262254	     -4.40497554	      0.00000000	      0.00000000	     10.35156654	      1.33941069	      3.17334282
      3.04000000	    -14.10418808	      0.41391149	     -6.54394994	      0.09850997	      0.93919263	      0.01771574	      2.96995569	      3.56090524	      8.08606581	    -15.62216236	     13.01214669	      0.00000000	      0.00000000	     37.14376488	     -1.94889722	     -2.18476006	     -8.55235772	     -4.75942583	      0.00000000	      0.00000000	     10.79341172	      1.41380508	      2.70645928
      3.05000000	    -14.18703524	      0.53370537	     -6.39159106	      0.10076475	      0.93851702	      0.01604978	      2.71667423	      3.26861139	      8.03872118	    -16.08174402	     12.54666930	      0.00000000	      0.00000000	     37.27774794	     -1.51186767	     -1.59928631	     -9.55027375	     -5.13298782	      0.00000000	      0.00000000	     11.05379834	      1.32453899	      2.52805888
      3.06000000	    -14.39652327	      0.59131336	     -6.08013520	      0.10314060	      0.93793627	      0.01404064	      2.62317724	      3.01912778	      7.55636724	    -16.55700778	     11.82952817	      0.00000000	      0.00000000	     37.55452802	     -1.03065653	     -0.72348952	    -10.60409076	     -5.35997382	      0.00000000	      0.00000000	     11.48688593	      1.30564193	      2.12783818
      3.07000000	    -14.53290875	      0.69124658	     -5.80989971	      0.10554139	      0.93773551	      0.01204711	      2.54417805	      2.72980273	      7.29310545	    -17.18929419	     11.04352267	      0.00000000	      0.00000000	     37.72628750	     -0.52318677	      0.10194687	    -11.64443630	     -5.44196626	      0.00000000	      0.00000000	     11.83413301	      1.23230684	      1.87180843
      3.08000000	    -14.53211689	      0.88565935	     -5.65132158	      0.10788963	      0.93807755	      0.01039933	      2.44549203	      2.37419671	      7.38098826	    -18.00239789	     10.27003390	      0.00000000	      0.00000000	     37.68695980	     -0.01382712	      0.81729312	    -12.61934382	     -5.53743568	      0.00000000	      0.00000000	     12.01793811	      1.01859313	      1.70848899
      3.09000000	    -14.79330289	      0.89796294	     -5.12277266	      0.11036502	      0.93832897	      0.00794965	      2.65473446	      2.14808669	      6.55494208	    -18.82723921	      8.78287057	      0.00000000	      0.00000000	     38.03901330	      0.57878588	      1.99424590	    -13.88259438	     -5.04069654	      0.00000000	      0.00000000	     12.52634394	      0.99673301	      1.19463062
      3.10000000	    -14.82161069	      1.03772002	     -4.84611440	      0.11270145	      0.93924249	      0.00593311	      2.82118767	      1.81379469	      6.22881939	    -19.96740224	      7.38719595	      0.00000000	      0.00000000	     38.00138268	      1.12313987	      2.77584107	    -14.89904320	     -4.66093133	      0.00000000	      0.00000000	     12.73152823	      0.83950170	      0.98396310
      3.11000000	    -14.81683522	      1.17924831	     -4.53795423	      0.11503896	      0.94048025	      0.00385971	      3.05136360	      1.47175462	      5.88107288	    -21.22668926	      5.73105620	      0.00000000	      0.00000000	     37.86353862	      1.68176445	      3.51283166	    -15.83082584	     -4.14879538	      0.00000000	      0.00000000	     12.89781102	      0.66706848	      0.75042363
      3.12000000	    -14.72997580	      1.34300804	     -4.29721270	      0.11725372	      0.94207128	      0.00187494	      3.35474579	      1.10309091	      5.57791992	    -22.69805055	      3.92537914	      0.00000000	      0.00000000	     37.54482390	      2.20704166	      4.09518730	    -16.59685745	     -3.63692504	      0.00000000	      0.00000000	     12.93650531	      0.47355406	      0.60003046
      3.13000000	    -14.62074695	      1.50638264	     -4.03614577	      0.11946707	      0.94388602	     -0.00009912	      3.72667398	      0.73048270	      5.25309016	    -24.26071733	      1.80024931	      0.00000000	      0.00000000	     37.09885412	      2.71856199	      4.49870302	    -17.18460880	     -3.02775326	      0.00000000	      0.00000000	     12.95314759	      0.27050940	      0.38745914
      3.14000000	    -14.44581383	      1.67921761	     -3.84129740	      0.12155318	      0.94589584	     -0.00196495	      4.18099440	      0.34383194	      4.93247666	    -26.01204722	     -0.51871204	      0.00000000	      0.00000000	     36.48219763	      3.17400968	      4.72104903	    -17.57100852	     -2.45772216	      0.00000000	      0.00000000	     12.87459331	      0.05957159	      0.24741971
      3.15000000	    -14.21987866	      1.87436908	     -3.73201313	      0.12349133	      0.94799967	     -0.00381011	      4.73825238	     -0.08927717	      4.58642070	    -27.95177828	     -2.96762254	      0.00000000	      0.00000000	     35.71901345	      3.58923369	      4.74640774	    -17.76261124	     -1.92942089	      0.00000000	      0.00000000	     12.71224458	     -0.14061574	      0.16124298
      3.16000000	    -13.97728635	      2.07821812	     -3.62565168	      0.12535629	      0.95011209	     -0.00543953	      5.34995469	     -0.51629833	      4.25857801	    -29.92590934	     -5.70401028	      0.00000000	      0.00000000	     34.81602383	      3.96272396	      4.51830529	    -17.68247363	     -1.44586069	      0.00000000	      0.00000000	     12.53798571	     -0.37967688	      0.04688597
      3.17000000	    -13.70623274	      2.30176536	     -3.59514140	      0.12700393	      0.95212681	     -0.00704667	      6.08017171	     -0.98760206	      3.89141604	    -32.07747241	     -8.41388427	      0.00000000	      0.00000000	     33.84099566	      4.31203155	      4.16023085	    -17.48648419	     -1.01138726	      0.00000000	      0.00000000	     12.30690058	     -0.60901067	     -0.02065213
      3.18000000	    -13.43206181	      2.53462161	     -3.61026339	      0.12848452	      0.95398232	     -0.00852663	      6.89775692	     -1.47532084	      3.51014493	    -34.29692020	    -11.12733299	      0.00000000	      0.00000000	     32.80922662	      4.63413708	      3.67711187	    -17.15166255	     -0.63364498	      0.00000000	      0.00000000	     12.06530716	     -0.84329478	     -0.09571543
      3.19000000	    -13.16327952	      2.75188359	     -3.66119570	      0.12972666	      0.95560469	     -0.00995047	      7.80935980	     -1.96280538	      3.08224510	    -36.59235363	    -13.65632012	      0.00000000	      0.00000000	     31.77282706	      4.92661695	      3.16845942	    -16.76154409	     -0.29053685	      0.00000000	      0.00000000	     11.81249389	     -1.04415984	     -0.17316757
      3.20000000	    -12.92103231	      2.99238758	     -3.73346600	      0.13081539	      0.95700727	     -0.01121929	      8.79175088	     -2.47421796	      2.64184549	    -38.86098621	    -16.06355001	      0.00000000	      0.00000000	     30.73023409	      5.22311491	      2.58937455	    -16.25811526	      0.00122371	      0.00000000	      0.00000000	     11.60315899	     -1.27843236	     -0.27537724
      3.21000000	    -12.68932518	      3.22145566	     -3.79676252	      0.13162823	      0.95815026	     -0.01243619	      9.83513031	     -2.97771700	      2.18850686	    -41.15493126	    -18.03215508	      0.00000000	      0.00000000	     29.76265725	      5.52828906	      2.16265851	    -15.86006186	      0.32532531	      0.00000000	      0.00000000	     11.38284250	     -1.50145554	     -0.42104745
      3.22000000	    -12.49924530	      3.41697811	     -3.84882484	      0.13221684	      0.95903536	     -0.01359648	     10.93651076	     -3.45148718	      1.69662793	    -43.39876594	    -19.51945710	      0.00000000	      0.00000000	     28.86893207	      5.81500481	      1.84621760	    -15.48242209	      0.64292090	      0.00000000	      0.00000000	     11.20690081	     -1.68440336	     -0.60434250
      3.23000000	    -12.33612986	      3.56029291	     -3.85359107	      0.13258799	      0.95974104	     -0.01470103	     12.04785438	     -3.85513794	      1.20937492	    -45.55082884	    -20.42285631	      0.00000000	      0.00000000	     28.05863777	      6.07835710	      1.69934912	    -15.20965684	      0.97641200	      0.00000000	      0.00000000	     11.04603096	     -1.82801482	     -0.84765393
      3.24000000	    -12.23195050	      3.79705506	     -3.83873421	      0.13276999	      0.96022790	     -0.01569984	     13.25029870	     -4.36255229	      0.69490051	    -47.65651414	    -20.77977705	      0.00000000	      0.00000000	     27.35894823	      6.43462287	      1.69816560	    -14.99502318	      1.36316827	      0.00000000	      0.00000000	     10.98007830	     -2.08912535	     -1.13676864
      3.25000000	    -12.15881466	      3.97554714	     -3.76136713	      0.13269186	      0.96055820	     -0.01670777	     14.46196008	     -4.80057022	      0.17299827	    -49.65772912	    -20.39684271	      0.00000000	      0.00000000	     26.77685195	      6.77355616	      1.95089688	    -14.94078343	      1.79736421	      0.00000000	      0.00000000	     10.91903925	     -2.29495325	     -1.47467147
      3.26000000	    -12.10706105	      4.08985659	     -3.63491555	      0.13243060	      0.96083419	     -0.01772631	     15.65055917	     -5.16270463	     -0.35371865	    -51.48977039	    -19.38968363	      0.00000000	      0.00000000	     26.28108978	      7.07690148	      2.36936958	    -15.00784976	      2.27072433	      0.00000000	      0.00000000	     10.87039387	     -2.44054911	     -1.87039804
      3.27000000	    -12.06358788	      4.16690978	     -3.47741954	      0.13205243	      0.96109418	     -0.01864097	     16.80990387	     -5.47350481	     -0.88773545	    -53.14766516	    -17.85510557	      0.00000000	      0.00000000	     25.84009250	      7.34977536	      2.94808882	    -15.18440733	      2.77300883	      0.00000000	      0.00000000	     10.83990414	     -2.57057343	     -2.24442175
